<svg width="149" height="25" viewBox="0 0 149 25" fill="none" xmlns="http://www.w3.org/2000/svg">
<g clip-path="url(#clip0_15_5569)">
<path d="M26.6682 0H23.1099V3.57096H26.6682V0Z" fill="#EFE33B"/>
<path d="M3.55837 0H0V16.0726C0 18.5375 0.869968 20.6413 2.60663 22.3874C4.3433 24.1302 6.43973 25.0033 8.89591 25.0033V21.4323C7.42416 21.4323 6.16827 20.9072 5.12169 19.8602C4.07838 18.8132 3.55509 17.5496 3.55509 16.0726V10.7162H8.89918V7.1452H3.55837V0Z" fill="#EFE33B"/>
<path d="M11.5547 16.0727V25.0033H15.1131V16.0727C15.1131 14.5957 15.6331 13.3354 16.6796 12.2884C17.723 11.2414 18.9821 10.7162 20.4539 10.7162V7.14526C17.9977 7.14526 15.9013 8.01831 14.1646 9.76112C12.4247 11.5039 11.558 13.6078 11.558 16.0727H11.5547Z" fill="#EFE33B"/>
<path d="M26.6682 7.14526H23.1099V25.0033H26.6682V7.14526Z" fill="#EFE33B"/>
<path d="M32.8855 0H29.3271V16.0726C29.3271 18.5375 30.1971 20.6413 31.9338 22.3874C33.6704 24.1302 35.7701 25.0033 38.2231 25.0033V21.4323C36.7513 21.4323 35.4954 20.9072 34.4521 19.8602C33.4088 18.8132 32.8855 17.5496 32.8855 16.0726V10.7162H38.2231V7.1452H32.8855V0Z" fill="#EFE33B"/>
<path d="M48.9013 7.14526C46.4451 7.14526 44.3487 8.01831 42.612 9.76112C40.8753 11.5039 40.0054 13.6078 40.0054 16.0727C40.0054 18.5375 40.8753 20.6414 42.612 22.3875C44.3487 24.1303 46.4484 25.0033 48.9013 25.0033C51.3542 25.0033 53.4539 24.1303 55.1938 22.3875C56.9305 20.6447 57.8005 18.5375 57.8005 16.0727C57.8005 13.6078 56.9305 11.5039 55.1938 9.76112C53.4572 8.01831 51.3575 7.14526 48.9013 7.14526ZM52.6755 19.8602C51.6322 20.9072 50.373 21.4324 48.9013 21.4324C47.4295 21.4324 46.1736 20.9072 45.1303 19.8602C44.087 18.8132 43.5637 17.5496 43.5637 16.0727C43.5637 14.5957 44.087 13.3354 45.1303 12.2884C46.1736 11.2414 47.4328 10.7162 48.9013 10.7162C50.3698 10.7162 51.6289 11.2414 52.6755 12.2884C53.7188 13.3354 54.2421 14.599 54.2421 16.0727C54.2421 17.5463 53.7188 18.81 52.6755 19.8602Z" fill="#EFE33B"/>
<path d="M69.352 7.14526C66.8958 7.14526 64.7994 8.01831 63.0627 9.76112C61.3228 11.5039 60.4561 13.6078 60.4561 16.0727V25.0033H64.0144V16.0727C64.0144 14.5957 64.5344 13.3354 65.581 12.2884C66.6243 11.2414 67.8835 10.7162 69.3552 10.7162C70.827 10.7162 72.0829 11.2414 73.1262 12.2884C74.1695 13.3354 74.6928 14.599 74.6928 16.0727V25.0033H78.2511V16.0727C78.2511 13.6078 77.3812 11.5039 75.6445 9.76112C73.9078 8.01831 71.8114 7.14526 69.3552 7.14526H69.352Z" fill="#EFE33B"/>
<path d="M89.0703 8.93068V25.0033H92.6287V10.7162H97.9662V7.1452H92.9132C93.1749 6.40672 93.6 5.74045 94.1953 5.14638C95.2386 4.09938 96.4977 3.57424 97.9695 3.57424V0C95.5133 0 93.4169 0.873047 91.6769 2.61586C89.9403 4.36195 89.0703 6.4658 89.0703 8.93068Z" fill="#EFE33B"/>
<path d="M108.645 7.14526C106.189 7.14526 104.092 8.01831 102.352 9.76112C100.616 11.5039 99.7456 13.6078 99.7456 16.0727C99.7456 18.5375 100.616 20.6414 102.352 22.3875C104.089 24.1303 106.189 25.0033 108.645 25.0033C111.101 25.0033 113.201 24.1303 114.944 22.3776C115.762 21.5571 116.389 20.6447 116.831 19.6469H112.615C112.556 19.7191 112.491 19.788 112.419 19.8602C111.376 20.9072 110.117 21.4324 108.648 21.4324C107.18 21.4324 105.92 20.9072 104.874 19.8602C104.282 19.2662 103.853 18.5999 103.592 17.8581H117.384C117.492 17.2871 117.544 16.693 117.544 16.0727C117.544 13.6078 116.674 11.5039 114.937 9.76112C113.201 8.01831 111.104 7.14526 108.648 7.14526H108.645ZM103.592 14.2872C103.853 13.5487 104.279 12.8824 104.874 12.2884C105.917 11.2414 107.176 10.7162 108.648 10.7162C110.12 10.7162 111.376 11.2414 112.419 12.2884C113.011 12.8824 113.439 13.5487 113.701 14.2872H103.595H103.592Z" fill="#EFE33B"/>
<path d="M121.217 8.71401C120.174 9.76101 119.65 11.0246 119.65 12.5016C119.65 13.9786 120.174 15.2389 121.217 16.2892C122.26 17.3362 123.519 17.8613 124.988 17.8613H132.105C132.592 17.8613 133.007 18.0386 133.36 18.3897C133.71 18.7409 133.884 19.161 133.884 19.6501C133.884 20.1391 133.707 20.5559 133.36 20.9104C133.01 21.2616 132.592 21.4356 132.105 21.4356H119.647V25.0065H132.105C133.576 25.0065 134.832 24.4814 135.879 23.4344C136.922 22.3874 137.445 21.1238 137.445 19.6501C137.445 18.1764 136.922 16.9128 135.879 15.8625C134.835 14.8155 133.576 14.2904 132.105 14.2904H124.988C124.5 14.2904 124.085 14.1164 123.732 13.7652C123.382 13.414 123.209 12.9939 123.209 12.5049C123.209 12.0158 123.385 11.599 123.732 11.2445C124.082 10.8933 124.5 10.7194 124.988 10.7194H137.445V7.14844H124.988C123.516 7.14844 122.26 7.67358 121.217 8.72058V8.71401Z" fill="#EFE33B"/>
<path d="M143.662 0H140.104V16.0726C140.104 18.5375 140.974 20.6413 142.711 22.3874C144.447 24.1302 146.547 25.0033 149.003 25.0033V21.4323C147.531 21.4323 146.276 20.9072 145.229 19.8602C144.186 18.8132 143.662 17.5496 143.662 16.0726V10.7162H149V7.1452H143.662V0Z" fill="#EFE33B"/>
</g>
<defs>
<clipPath id="clip0_15_5569">
<rect width="149" height="25" fill="white"/>
</clipPath>
</defs>
</svg>
