<svg width="602" height="134" viewBox="0 0 602 134" fill="none" xmlns="http://www.w3.org/2000/svg">
<path d="M63.9249 25.3249H52.7309L93.6973 106.821H73.0966L28.0521 25.3249H16.1868L2.35791 1.36768H52.4204L63.9249 25.3332V25.3249Z" fill="#000D09"/>
<path d="M95.9042 108.189H72.2827L27.2466 26.6927H15.398L0 0H53.2764L66.0899 26.6927H54.9379L95.9042 108.189ZM73.8938 105.462H91.482L50.5157 23.9656H61.7516L51.5646 2.72717H4.72431L16.9756 23.9656H28.8577L73.9022 105.462H73.8938Z" fill="#241F20"/>
<path d="M131.24 50.3645L125.181 60.2914L138.372 70.0841L151.664 106.813H132.188L117.159 70.0841H112.745L128.135 106.813H108.096L58.7808 1.36768H98.7989L120.021 19.3754L131.24 50.3729V50.3645ZM98.8492 25.3249H93.9907L104.48 50.3645H109.087L98.8409 25.3249H98.8492Z" fill="#000D09"/>
<path d="M153.611 108.189H131.273L116.245 71.4604H114.793L130.183 108.189H107.224L56.6411 0H99.3025L121.187 18.57L132.75 50.5157L127.002 59.9391L139.522 69.2367L153.611 108.181V108.189ZM133.111 105.462H149.726L137.231 70.9485L123.369 60.6607L129.729 50.2304L118.863 20.1895L98.3039 2.72717H60.9291L108.978 105.454H126.096L110.706 68.7248H118.091L133.119 105.454L133.111 105.462ZM111.126 51.7324H103.574L91.9349 23.9656H99.7556L111.117 51.7324H111.126ZM105.395 49.0052H107.064L97.9347 26.6927H96.0467L105.395 49.0052Z" fill="#241F20"/>
<path d="M151.547 1.36768L181.949 106.821H161.348L125.668 1.36768H151.547Z" fill="#000D09"/>
<path d="M183.77 108.189H160.375L123.772 0H152.579L183.77 108.189ZM162.33 105.462H180.136L150.523 2.72717H127.573L162.33 105.454V105.462Z" fill="#241F20"/>
<path d="M212.401 25.3249H201.207L217.637 106.821H197.036L176.528 25.3249H164.663L158.059 1.35938H208.121L212.409 25.3249H212.401Z" fill="#000D09"/>
<path d="M219.307 108.189H195.979L175.47 26.6927H163.63L156.263 0H209.254L214.028 26.6927H202.868L219.298 108.189H219.307ZM198.102 105.462H215.975L199.545 23.9656H210.773L206.971 2.72717H159.846L165.703 23.9656H177.593L198.102 105.462Z" fill="#241F20"/>
<path d="M274.539 94.7713L263.571 106.821H241.955L227.95 94.7713L215.011 19.3754L226.91 1.36768H252.931L269.881 19.3754L274.53 94.7713H274.539ZM245.58 25.3249H240.722L248.61 90.2568H252.822L245.572 25.3249H245.58Z" fill="#000D09"/>
<path d="M264.175 108.189H241.452L226.691 95.4847L213.584 19.0734L226.188 0H253.527L271.215 18.7965L275.931 95.2581L264.175 108.181V108.189ZM242.467 105.462H262.975L273.145 94.2847L268.564 19.9545L252.36 2.73557H227.665L216.471 19.686L229.234 94.0665L242.484 105.47L242.467 105.462ZM254.357 91.6247H247.409L239.186 23.9656H246.797L254.357 91.6247ZM249.826 88.8975H251.311L244.363 26.6927H242.265L249.826 88.8975Z" fill="#241F20"/>
<path d="M329.09 106.821H313.558L304.781 69.9498H304.042L303.765 106.821H284.969L280.941 1.36768H299.184L310.671 52.3281H311.561L312.752 1.36768H336.366L329.082 106.821H329.09Z" fill="#000D09"/>
<path d="M330.366 108.189H312.484L305.343 78.2154L305.116 108.189H283.651L279.523 0H300.275L310.378 44.8096L311.427 0H337.834L330.366 108.189ZM314.632 105.462H327.815L334.906 2.72717H314.087L312.895 53.6876H309.581L298.093 2.72717H282.359L286.278 105.454H302.414L302.691 68.5821H305.855L314.632 105.454V105.462Z" fill="#241F20"/>
<path d="M425.07 25.3249H405.787L401.264 46.5465H415.722L410.838 66.5849H397.001L388.425 106.813H368.387L385.723 1.36768H431.112L425.07 25.3332V25.3249Z" fill="#000D09"/>
<path d="M389.524 108.189H366.775L384.565 0H432.865L426.135 26.6927H406.894L402.95 45.1872H417.459L411.912 67.9528H398.1L389.524 108.181V108.189ZM369.989 105.462H387.317L395.893 65.234H409.764L413.985 47.9227H399.585L404.687 23.9656H424.012L429.366 2.72717H386.881L369.989 105.454V105.462Z" fill="#241F20"/>
<path d="M471.734 25.3249H455.279L448.532 46.8569H461.69L454.859 66.8702H442.264L434.93 90.2568H450.034L444.261 106.821H409.697L437.615 1.36768H480.042L471.734 25.3332V25.3249Z" fill="#000D09"/>
<path d="M445.226 108.189H407.927L436.566 0H481.955L472.699 26.6927H456.277L450.387 45.4977H463.595L455.833 68.2381H443.263L436.784 88.8975H451.956L445.226 108.189ZM411.468 105.462H443.288L448.113 91.6247H433.067L441.249 65.5109H453.869L459.768 48.2248H446.661L454.264 23.9656H470.744L478.112 2.72717H438.656L411.451 105.454L411.468 105.462Z" fill="#241F20"/>
<path d="M524.348 41.1005H501.767L508.413 25.3249H503.562L494.072 48.3926L507.154 49.9114L514.513 64.7472L500.365 94.7713L482.978 106.821H461.253L453.785 94.7713L459.986 77.6027H482.047L476.844 90.2568H481.057L489.314 70.6463L477.44 69.396L468.78 55.0133L481.703 19.3754L502.379 1.36768H528.543L534.526 19.3754L524.348 41.1089V41.1005Z" fill="#000D09"/>
<path d="M483.407 108.189H460.498L452.283 94.9308L459.038 76.2434H484.095L478.892 88.8975H480.167L487.359 71.8128L476.635 70.68L467.287 55.1561L480.554 18.57L480.822 18.335L501.876 0H529.534L536.003 19.4594L525.22 42.4684H499.711L506.357 26.6927H504.469L496.01 47.243L508.043 48.6444L516.024 64.7389L501.439 95.6861L483.398 108.189H483.407ZM462.009 105.462H482.551L499.283 93.8651L512.994 64.7725L506.256 51.187L492.117 49.5423L502.639 23.9656H510.46L503.814 39.7412H523.475L533.058 19.2916L527.553 2.72717H502.891L482.87 20.1727L470.283 54.8707L478.254 68.1122L491.286 69.48L481.963 91.6163H474.805L480.008 78.9622H460.935L455.279 94.612L462 105.454L462.009 105.462Z" fill="#241F20"/>
<path d="M585.143 25.3249H573.949L528.795 106.821H508.194L549.27 25.3249H537.404L548.909 1.35938H598.971L585.151 25.3249H585.143Z" fill="#000D09"/>
<path d="M529.601 108.189H505.979L547.054 26.6927H535.231L548.045 0H601.321L585.923 26.6927H574.746L529.592 108.189H529.601ZM510.41 105.462H527.989L573.143 23.9656H584.354L596.605 2.72717H549.765L539.569 23.9656H551.485L510.41 105.462Z" fill="#241F20"/>
<path d="M63.9249 38.063H52.7309L93.6973 119.559H73.0966L28.0521 38.063H16.1868L2.35791 14.0974H52.4204L63.9249 38.063Z" fill="#FB0031"/>
<path d="M95.9042 120.919H72.2827L27.2466 39.4308H15.398L0 12.738H53.2764L66.0899 39.4308H54.9379L95.9042 120.927V120.919ZM73.8938 118.192H91.482L50.5157 36.6952H61.7516L51.5562 15.4568H4.72431L16.9756 36.6952H28.8577L73.9022 118.192H73.8938Z" fill="#241F20"/>
<path d="M131.24 63.1026L125.181 73.0295L138.372 82.8222L151.664 119.551H132.188L117.159 82.8222H112.745L128.135 119.551H108.096L58.7808 14.0974H98.7989L120.021 32.1052L131.24 63.1026ZM98.8492 38.063H93.9907L104.48 63.1026H109.087L98.8409 38.063H98.8492Z" fill="#FB0031"/>
<path d="M153.611 120.919H131.273L116.245 84.19H114.793L130.183 120.919H107.224L56.6411 12.738H99.3025L121.187 31.308L132.75 63.2537L127.002 72.6771L139.522 81.9747L153.611 120.919ZM133.111 118.192H149.726L137.231 83.6781L123.369 73.3904L129.729 62.96L118.863 32.9275L98.2956 15.4736H60.9207L108.969 118.2H126.088L110.698 81.4712H118.082L133.111 118.2V118.192ZM111.126 64.462H103.574L91.9349 36.6952H99.7556L111.117 64.462H111.126ZM105.395 61.7349H107.064L97.9347 39.4224H96.0467L105.395 61.7349Z" fill="#241F20"/>
<path d="M151.547 14.0974L181.949 119.551H161.348L125.668 14.0974H151.547Z" fill="#FB0031"/>
<path d="M183.77 120.919H160.375L123.772 12.738H152.579L183.77 120.927V120.919ZM162.33 118.192H180.136L150.523 15.4652H127.573L162.33 118.192Z" fill="#241F20"/>
<path d="M212.401 38.0632H201.207L217.637 119.56H197.036L176.528 38.0632H164.663L158.059 14.0977H208.121L212.409 38.0632H212.401Z" fill="#FB0031"/>
<path d="M219.307 120.919H195.979L175.471 39.4225H163.631L156.271 12.7297H209.263L214.037 39.4225H202.877L219.307 120.919ZM198.102 118.192H215.976L199.545 36.6953H210.773L206.972 15.4569H159.846L165.703 36.6953H177.594L198.102 118.192Z" fill="#241F20"/>
<path d="M274.539 107.51L263.571 119.559H241.955L227.95 107.51L215.011 32.1137L226.91 14.106H252.931L269.881 32.1137L274.53 107.51H274.539ZM245.58 38.0631H240.722L248.61 102.995H252.822L245.572 38.0631H245.58Z" fill="#FB0031"/>
<path d="M264.175 120.919H241.452L226.691 108.214L213.584 31.8032L226.188 12.7297H253.527L271.215 31.5263L275.931 107.988L264.175 120.91V120.919ZM242.467 118.192H262.975L273.145 107.014L268.564 32.6843L252.36 15.4653H227.665L216.471 32.4157L229.234 106.796L242.484 118.2L242.467 118.192ZM254.357 104.354H247.409L239.186 36.6953H246.797L254.357 104.354ZM249.826 101.627H251.311L244.363 39.4225H242.265L249.826 101.627Z" fill="#241F20"/>
<path d="M329.091 119.559H313.558L304.781 82.6881H304.043L303.766 119.559H284.969L280.95 14.106H299.192L310.68 65.0664H311.57L312.761 14.106H336.374L329.091 119.559Z" fill="#FB0031"/>
<path d="M330.366 120.919H312.484L305.343 90.9451L305.116 120.919H283.651L279.523 12.7297H300.275L310.378 57.5393L311.427 12.7297H337.834L330.366 120.919ZM314.632 118.192H327.815L334.906 15.4653H314.087L312.895 66.4257H309.581L298.093 15.4653H282.359L286.278 118.192H302.414L302.691 81.3203H305.855L314.632 118.192Z" fill="#241F20"/>
<path d="M425.07 38.063H405.787L401.264 59.2846H415.722L410.838 79.323H397.001L388.425 119.551H368.387L385.732 14.0974H431.12L425.078 38.063H425.07Z" fill="#FB0031"/>
<path d="M389.524 120.919H366.775L384.565 12.738H432.865L426.135 39.4308H406.894L402.95 57.9252H417.459L411.912 80.6908H398.1L389.524 120.919ZM369.989 118.192H387.317L395.893 77.9637H409.764L413.985 60.6524H399.585L404.687 36.6952H424.012L429.366 15.4568H386.881L369.989 118.183V118.192Z" fill="#241F20"/>
<path d="M471.734 38.0629H455.279L448.532 59.595H461.69L454.859 79.6083H442.264L434.93 102.995H450.034L444.261 119.559H409.697L437.624 14.1057H480.05L471.743 38.0713L471.734 38.0629Z" fill="#FB0031"/>
<path d="M445.226 120.919H407.927L436.566 12.738H481.955L472.699 39.4308H456.277L450.387 58.2357H463.595L455.833 80.9761H443.263L436.784 101.627H451.956L445.226 120.919ZM411.468 118.192H443.288L448.113 104.354H433.067L441.249 78.2406H453.869L459.768 60.9545H446.661L454.264 36.6952H470.744L478.112 15.4568H438.656L411.451 118.183L411.468 118.192Z" fill="#241F20"/>
<path d="M524.348 53.8386H501.767L508.413 38.0629H503.562L494.072 61.1306L507.154 62.6494L514.513 77.4852L500.365 107.509L482.978 119.559H461.253L453.785 107.509L459.986 90.3407H482.047L476.844 102.995H481.057L489.314 83.3843L477.44 82.134L468.78 67.7513L481.703 32.1135L502.379 14.1057H528.543L534.526 32.1135L524.348 53.8469V53.8386Z" fill="#FB0031"/>
<path d="M483.407 120.919H460.498L452.283 107.66L459.038 88.973H484.095L478.892 101.627H480.167L487.359 84.5424L476.635 83.4096L467.287 67.8856L480.554 31.2995L501.876 12.7212H529.534L536.003 32.1806L525.22 55.1896H499.711L506.357 39.4139H504.469L496.01 59.9642L508.043 61.3656L516.024 77.4601L501.439 108.407L483.398 120.91L483.407 120.919ZM462.009 118.192H482.551L499.283 106.595L512.994 77.5021L506.256 63.9165L492.117 62.2718L502.639 36.6952H510.46L503.814 52.4708H523.475L533.058 32.0212L527.553 15.4568H502.891L482.87 32.9023L470.283 67.6003L478.254 80.8418L491.286 82.2096L481.963 104.346H474.805L480.008 91.6918H460.935L455.279 107.342L462 118.183L462.009 118.192Z" fill="#241F20"/>
<path d="M585.143 38.0632H573.949L528.795 119.56H508.194L549.27 38.0632H537.404L548.909 14.0977H598.971L585.151 38.0632H585.143Z" fill="#FB0031"/>
<path d="M529.601 120.919H505.979L547.054 39.4225H535.231L548.045 12.7297H601.321L585.923 39.4225H574.746L529.592 120.919H529.601ZM510.41 118.192H527.989L573.143 36.6953H584.354L596.605 15.4569H549.765L539.569 36.6953H551.485L510.41 118.192Z" fill="#241F20"/>
<path d="M63.9249 50.6081H52.7309L93.6973 132.104H73.0966L28.0521 50.6081H16.1868L2.35791 26.6509H52.4204L63.9249 50.6164V50.6081Z" fill="#F2E300"/>
<path d="M95.9042 133.472H72.2827L27.2466 51.9759H15.398L0 25.2832H53.2764L66.0899 51.9759H54.9379L95.9042 133.472ZM73.8938 130.745H91.482L50.5157 49.2488H61.7516L51.5562 28.0104H4.72431L16.9756 49.2488H28.8577L73.9022 130.745H73.8938Z" fill="#241F20"/>
<path d="M131.24 75.6475L125.181 85.5744L138.372 95.367L151.664 132.096H132.188L117.159 95.367H112.745L128.135 132.096H108.096L58.7808 26.6506H98.7989L120.021 44.6584L131.24 75.6559V75.6475ZM98.8492 50.6078H93.9907L104.48 75.6475H109.087L98.8409 50.6078H98.8492Z" fill="#F2E300"/>
<path d="M153.611 133.472H131.273L116.245 96.7433H114.793L130.183 133.472H107.224L56.6411 25.283H99.3025L121.187 43.8529L132.75 75.807L127.002 85.2304L139.522 94.528L153.611 133.472ZM133.111 130.745H149.726L137.231 96.2314L123.369 85.9437L129.729 75.5133L118.863 45.4724L98.2956 28.0185H60.9207L108.969 130.745H126.088L110.698 94.0161H118.082L133.111 130.745ZM111.126 77.0154H103.574L91.9349 49.2485H99.7556L111.117 77.0154H111.126ZM105.395 74.2882H107.064L97.9347 51.9757H96.0467L105.395 74.2882Z" fill="#241F20"/>
<path d="M151.547 26.6506L181.949 132.104H161.348L125.668 26.6506H151.547Z" fill="#F2E300"/>
<path d="M183.77 133.472H160.375L123.772 25.283H152.579L183.77 133.472ZM162.33 130.745H180.136L150.515 28.0185H127.565L162.322 130.745H162.33Z" fill="#241F20"/>
<path d="M212.401 50.6079H201.207L217.637 132.104H197.036L176.528 50.6079H164.663L158.059 26.6423H208.121L212.409 50.6079H212.401Z" fill="#F2E300"/>
<path d="M219.307 133.472H195.979L175.471 51.9757H163.631L156.271 25.283H209.263L214.037 51.9757H202.877L219.307 133.472ZM198.102 130.745H215.976L199.545 49.2485H210.773L206.972 28.0101H159.846L165.703 49.2485H177.594L198.102 130.745Z" fill="#241F20"/>
<path d="M274.539 120.054L263.571 132.104H241.955L227.95 120.054L215.011 44.6584L226.91 26.6506H252.931L269.881 44.6584L274.53 120.054H274.539ZM245.58 50.6078H240.722L248.61 115.54H252.822L245.572 50.6078H245.58Z" fill="#F2E300"/>
<path d="M264.175 133.472H241.452L226.691 120.768L213.584 44.3564L226.188 25.283H253.527L271.215 44.0795L275.931 120.541L264.175 133.464V133.472ZM242.467 130.745H262.975L273.145 119.568L268.564 45.2375L252.36 28.0185H227.665L216.471 44.969L229.234 119.349L242.484 130.753L242.467 130.745ZM254.357 116.908H247.409L239.186 49.2485H246.797L254.357 116.908ZM249.826 114.18H251.311L244.363 51.9757H242.265L249.826 114.18Z" fill="#241F20"/>
<path d="M329.091 132.104H313.558L304.781 95.2328H304.043L303.766 132.104H284.969L280.95 26.6506H299.192L310.68 77.611H311.57L312.761 26.6506H336.374L329.091 132.104Z" fill="#F2E300"/>
<path d="M330.366 133.472H312.484L305.343 103.498L305.116 133.472H283.651L279.523 25.283H300.275L310.378 70.0925L311.427 25.283H337.834L330.366 133.472ZM314.632 130.745H327.815L334.906 28.0185H314.087L312.895 78.9789H309.581L298.093 28.0185H282.359L286.278 130.745H302.414L302.691 93.8735H305.855L314.632 130.745Z" fill="#241F20"/>
<path d="M425.07 50.6079H405.787L401.264 71.8295H415.722L410.838 91.868H397.001L388.425 132.096H368.387L385.732 26.6423H431.12L425.078 50.6079H425.07Z" fill="#F2E300"/>
<path d="M389.524 133.472H366.775L384.565 25.283H432.865L426.135 51.9757H406.894L402.95 70.4701H417.459L411.912 93.2357H398.1L389.524 133.464V133.472ZM369.989 130.745H387.317L395.893 90.517H409.764L413.985 73.2057H399.585L404.687 49.2485H424.012L429.366 28.0101H386.881L369.989 130.736V130.745Z" fill="#241F20"/>
<path d="M471.734 50.6078H455.279L448.532 72.1399H461.69L454.859 92.1532H442.264L434.93 115.54H450.034L444.261 132.104H409.697L437.624 26.6506H480.05L471.743 50.6162L471.734 50.6078Z" fill="#F2E300"/>
<path d="M445.226 133.472H407.927L436.575 25.283H481.963L472.708 51.9757H456.286L450.395 70.7806H463.603L455.841 93.521H443.271L436.793 114.18H451.964L445.235 133.472H445.226ZM411.468 130.745H443.288L448.113 116.908H433.067L441.249 90.7939H453.869L459.768 73.5078H446.661L454.264 49.2485H470.744L478.112 28.0101H438.656L411.451 130.736L411.468 130.745Z" fill="#241F20"/>
<path d="M524.348 66.3837H501.767L508.413 50.6081H503.562L494.072 73.6758L507.154 75.1946L514.513 90.0304L500.365 120.055L482.978 132.104H461.253L453.785 120.055L459.986 102.886H482.047L476.844 115.54H481.057L489.314 95.9295L477.44 94.6792L468.78 80.2965L481.703 44.6586L502.379 26.6509H528.543L534.526 44.6586L524.348 66.3921V66.3837Z" fill="#F2E300"/>
<path d="M483.407 133.472H460.498L452.283 120.214L459.038 101.526H484.095L478.892 114.181H480.167L487.359 97.0958L476.635 95.963L467.287 80.4391L480.554 43.853L501.876 25.2747H529.534L536.003 44.7341L525.22 67.7431H499.711L506.357 51.9674H504.469L496.01 72.5177L508.043 73.919L516.024 90.0136L501.439 120.961L483.398 133.464L483.407 133.472ZM462.009 130.745H482.551L499.283 119.148L512.994 90.0555L506.256 76.47L492.117 74.8253L502.639 49.2486H510.46L503.814 65.0243H523.475L533.058 44.5747L527.553 28.0102H502.891L482.87 45.4557L470.283 80.1538L478.254 93.3953L491.286 94.7631L481.963 116.899H474.805L480.008 104.245H460.935L455.279 119.895L462 130.737L462.009 130.745Z" fill="#241F20"/>
<path d="M585.143 50.6079H573.949L528.795 132.104H508.194L549.27 50.6079H537.404L548.909 26.6423H598.971L585.151 50.6079H585.143Z" fill="#F2E300"/>
<path d="M529.601 133.472H505.979L547.054 51.9757H535.231L548.045 25.283H601.321L585.923 51.9757H574.746L529.592 133.472H529.601ZM510.41 130.745H527.989L573.143 49.2485H584.354L596.605 28.0101H549.765L539.569 49.2485H551.485L510.41 130.745Z" fill="#241F20"/>
</svg>
